/* XPM */
static char *b3765ff279aa416efb16cf0e89d60e97[] = {
/* columns rows colors chars-per-pixel */
"64 64 140 2 ",
"   c None",
".  c #0E0020",
"X  c #120726",
"o  c #110C24",
"O  c #15102C",
"+  c #16112D",
"@  c #141D2B",
"#  c #151D2D",
"$  c #161C2D",
"%  c #161D2D",
"&  c #151C2E",
"*  c #17202F",
"=  c #162230",
"-  c #172332",
";  c #172333",
":  c #182431",
">  c #192936",
",  c #192937",
"<  c #1A2937",
"1  c #1A2D37",
"2  c #1A2E37",
"3  c #1A2A38",
"4  c #1B2A38",
"5  c #1A2E38",
"6  c #1B2E38",
"7  c #1B2E39",
"8  c #1B2F39",
"9  c #1B2C3A",
"0  c #1C2C3B",
"q  c #1C2E3B",
"w  c #1F393F",
"e  c #221042",
"r  c #251A45",
"t  c #241946",
"y  c #251A46",
"u  c #251B46",
"i  c #241B47",
"p  c #251C46",
"a  c #251D47",
"s  c #251E47",
"d  c #261F48",
"f  c #252048",
"g  c #26284A",
"h  c #282E4E",
"j  c #29314F",
"k  c #29324F",
"l  c #293250",
"z  c #293350",
"x  c #2A3350",
"c  c #2A3251",
"v  c #293450",
"b  c #2A3451",
"n  c #2A3752",
"m  c #2A3952",
"M  c #2B3952",
"N  c #2B3953",
"B  c #2B3A53",
"V  c #2B3E53",
"C  c #2B3F53",
"Z  c #2B3C54",
"A  c #2B3F54",
"S  c #2C4054",
"D  c #2C4055",
"F  c #2C4254",
"G  c #2D4156",
"H  c #2D4356",
"J  c #2D4456",
"K  c #2D4457",
"L  c #2D4557",
"P  c #2D4657",
"I  c #2F4059",
"U  c #2E4258",
"Y  c #2F4359",
"T  c #2F435A",
"R  c #2F445A",
"E  c #2F445B",
"W  c #2F455B",
"Q  c #30445A",
"!  c #30445B",
"~  c #30455B",
"^  c #30465C",
"/  c #31465D",
"(  c #32485F",
")  c #3B8D74",
"_  c #3EA27C",
"`  c #3FA67D",
"'  c #40A67E",
"]  c #40A77E",
"[  c #40A87E",
"{  c #40AA7F",
"}  c #41AB80",
"|  c #41AD80",
" . c #41B080",
".. c #41B180",
"X. c #41B181",
"o. c #41B281",
"O. c #42B382",
"+. c #42B383",
"@. c #42B483",
"#. c #42B683",
"$. c #42B684",
"%. c #42B784",
"&. c #42B884",
"*. c #43B884",
"=. c #43B885",
"-. c #43B985",
";. c #43BA85",
":. c #43BA86",
">. c #43BB86",
",. c #44BB86",
"<. c #44BD87",
"1. c #44BF87",
"2. c #46C48A",
"3. c #47C48B",
"4. c #47C48C",
"5. c #47C58C",
"6. c #47C68C",
"7. c #47C98D",
"8. c #47CA8D",
"9. c #47CA8E",
"0. c #48CA8D",
"q. c #48CB8D",
"w. c #48CA8E",
"e. c #48CB8E",
"r. c #48CA8F",
"t. c #4AD293",
"y. c #4CD494",
"u. c #4CD796",
"i. c #4CD896",
"p. c #4DD896",
"a. c #4CD897",
"s. c #4DD897",
"d. c #4CD997",
"f. c #4ADF94",
"g. c #4ADF95",
"h. c #4DDD99",
"j. c #4AE094",
"k. c #4BE094",
"l. c #4CE596",
"z. c #4EE19B",
/* pixels */
"                                                                                                                                ",
"                                                                                                                                ",
"                                                                                                                                ",
"                                                                                                                                ",
"                                                                                                                                ",
"                                                                                                                                ",
"                                                                                                                                ",
"                                                                                                                                ",
"                                                                                                                                ",
"                                                                                                                                ",
"                                                                                                                                ",
"                            D D                                                           -.-.-.-.-.-.-.-.-.-.                  ",
"                          D D D D                                                       -.-.-.-.-.-.-.-.-.-.-.                  ",
"                        D D D D D D                                                   -.-.-.-.-.-.-.-.-.-.-.-.                  ",
"                      D D D D D D D D                                               -.-.-.-.-.-.-.-.-.-.-.-.-.                  ",
"                    D D D D D D D D D D                                           -.-.-.-.-.-.-.-.-.-.-.-.-.-.                  ",
"                  D D D D D D D D D D D D                                       -.-.-.-.-.-.-.-.-.-.-.-.-.-.-.                  ",
"                    D D D D D D D D D D D D                                   -.-.-.-.-.-.-.-.-.-.-.-.-.-.-.-.                  ",
"                      D D D D D D D D D D D D                               -.-.-.-.-.-.-.-.-.-.-.-.-.-.-.-.-.                  ",
"                        D D D D D D D D D D D D                           -.-.-.-.-.-.-.-.-.-.-.-.-.-.-.-.-.-.                  ",
"                          D D D D D D D D D D D D                       -.-.-.-.-.-.-.-.-.-.-.-.-.-.-.-.-.-.-.                  ",
"                            D D D D D D D D D D D D                   -.-.-.-.-.-.-.-.-.-.-.-.-.-.-.-.-.-.-.-.                  ",
"                              D D D D D D D D D D D S               -.-.-.-.-.-.-.-.-.-.-.-.  -.-.-.-.-.-.-.-.                  ",
"                                D D D D D D D D D D V (           -.-.-.-.-.-.-.-.-.-.-.-.    -.-.-.-.-.-.-.-.                  ",
"                                  D D D D D D D D C ! U q       %.-.-.-.-.-.-.-.-.-.-.-.      -.-.-.-.-.-.-.-.                  ",
"                                    D D D D D D C ! R > 8 .   z.$.-.-.-.-.-.-.-.-.-.-.        -.-.-.-.-.-.-.-.                  ",
"                                      D D D D C ! T , 7 O - ,.5.=.-.-.-.-.-.-.-.-.-.          -.-.-.-.-.-.-.-.                  ",
"                                        D D V ! R < 5 O $ w.d.X.-.-.-.-.-.-.-.-.-.            -.-.-.-.-.-.-.-.                  ",
"                                          A E T , 6 O # 0.p...;.-.-.-.-.-.-.-.-.              -.-.-.-.-.-.-.-.                  ",
"                                            G 4 7 O % q.s...;.-.-.-.-.-.&.&.-.                -.-.-.-.-.-.-.-.                  ",
"                                              @ X * 8.p...;.-.-.-.-.;.o.6.h.                  -.-.-.-.-.-.-.-.                  ",
"                                                w 2.i...;.-.-.-.-.;...y.<.                    -.-.-.-.-.-.-.-.                  ",
"                                                u.r...;.-.-.-.-.;. .a.e.=                     -.-.-.-.-.-.-.-.                  ",
"                                              3.>.#.-.-.-.-.-.;. .p.0.& + ;                   -.-.-.-.-.-.-.-.                  ",
"                                            -.-.-.-.-.-.-.-.;. .p.w.% O 1 9 c                 -.-.-.-.-.-.-.-.                  ",
"                                          -.-.-.-.-.-.-.-.;...i.9.& O 2 3 ^ I g               -.-.-.-.-.-.-.-.                  ",
"                                        -.-.-.-.-.-.-.-.;.o.t.7.% O 5 3 ~ T F Z s             -.-.-.-.-.-.-.-.                  ",
"                                      -.-.-.-.-.-.-.-.-.*.4.1.: O 5 3 ~ R V D H B f           -.-.-.-.-.-.-.-.                  ",
"                                    -.-.-.-.-.-.-.-.-.-.%.u.  o 3 3 W R C D D D J M y         -.-.-.-.-.-.-.-.                  ",
"                                  -.-.-.-.-.-.-.-.-.-.-.%.      0 Y Q C D D D D D J m y       *.-.-.-.-.-.-.-.                  ",
"                                -.-.-.-.-.-.-.-.-.-.-.-.          / C D D D D D D D K n a     :.-.-.-.-.-.-.-.                  ",
"                              -.-.-.-.-.-.-.-.-.-.-.-.              D D D D D D D D D K N e ) l.@.-.-.-.-.-.-.                  ",
"                            -.-.-.-.-.-.-.-.-.-.-.-.                  D D D D D D D D D J M d _ k.+.-.-.-.-.-.                  ",
"                          -.-.-.-.-.-.-.-.-.-.-.-.                      D D D D D D D D D L b t ` j.+.-.-.-.-.                  ",
"                        -.-.-.-.-.-.-.-.-.-.-.-.                          D D D D D D D D D L v u ] g.+.-.-.-.                  ",
"                      -.-.-.-.-.-.-.-.-.-.-.-.                              D D D D D D D D D L x r [ k.+.-.-.                  ",
"                    -.-.-.-.-.-.-.-.-.-.-.-.                                  D D D D D D D D D L z p { f.O.-.                  ",
"                  -.-.-.-.-.-.-.-.-.-.-.-.                                      D D D D D D D D D P l i } f.O.                  ",
"                    -.-.-.-.-.-.-.-.-.-.                                          D D D D D D D D D P k a | f.                  ",
"                      -.-.-.-.-.-.-.-.                                              D D D D D D D D D P j a '                   ",
"                        -.-.-.-.-.-.                                                  D D D D D D D D D P l h                   ",
"                          -.-.-.-.                                                      D D D D D D D D D L Z                   ",
"                            -.-.                                                          D D D D D D D D D D                   ",
"                                                                                            D D D D D D D D D                   ",
"                                                                                                                                ",
"                                                                                                                                ",
"                                                                                                                                ",
"                                                                                                                                ",
"                                                                                                                                ",
"                                                                                                                                ",
"                                                                                                                                ",
"                                                                                                                                ",
"                                                                                                                                ",
"                                                                                                                                "
};
