/* XPM */
static char *d00fd5b15f3b4529ca8d1ce3935c426d[] = {
/* columns rows colors chars-per-pixel */
"16 16 43 1 ",
"  c None",
". c #18062F",
"X c #16082D",
"o c #160B2D",
"O c #251D47",
"+ c #261F48",
"@ c #252248",
"# c #282B4D",
"$ c #29284E",
"% c #2A2B50",
"& c #2D3957",
"* c #2C4055",
"= c #2D4256",
"- c #2D4456",
"; c #2D4457",
": c #2E4558",
"> c #314D5F",
", c #30575E",
"< c #276450",
"1 c #2B6C57",
"2 c #315C60",
"3 c #315F61",
"4 c #308060",
"5 c #399A70",
"6 c #42B584",
"7 c #42B684",
"8 c #42B784",
"9 c #43B785",
"0 c #43B985",
"q c #43BA85",
"w c #45C088",
"e c #45C288",
"r c #46CB8C",
"t c #48CB8E",
"y c #49CF90",
"u c #4AD092",
"i c #4BD593",
"p c #4BD695",
"a c #4BD795",
"s c #4ADD93",
"d c #4CDB97",
"f c #4ADE94",
"g c #4EDE9A",
/* pixels */
"                ",
"                ",
"            0   ",
"   **      000  ",
"   **=    0000  ",
"    *;$  90000  ",
"     &.1pt  00  ",
"      <ia   00  ",
"      yg4X  q0  ",
"     wu5o%: r6  ",
"    07d  >@,fe  ",
"   008    -O2s  ",
"   00      -+3  ",
"            *#  ",
"                ",
"                "
};
