/* XPM */
static char *af1642c3dd1a4124929b9ab06986fc61[] = {
/* columns rows colors chars-per-pixel */
"32 32 94 2 ",
"   c None",
".  c #0A0018",
"X  c #0A0019",
"o  c #0A031A",
"O  c #0B001C",
"+  c #0C021C",
"@  c #0C031E",
"#  c #15092B",
"$  c #1A1C36",
"%  c #1B2138",
"&  c #252047",
"*  c #252049",
"=  c #262048",
"-  c #27244A",
";  c #252C48",
":  c #282B4C",
">  c #282D4E",
",  c #292F4E",
"<  c #29324F",
"1  c #2A3551",
"2  c #2A3651",
"3  c #2B3452",
"4  c #2A3952",
"5  c #2B3F53",
"6  c #2B3D54",
"7  c #2B3F54",
"8  c #2D3C57",
"9  c #214643",
"0  c #224844",
"q  c #265A4D",
"w  c #2B4054",
"e  c #2C4054",
"r  c #2C4055",
"t  c #2C4155",
"y  c #2D4157",
"u  c #2C4256",
"i  c #2C4356",
"p  c #2C4455",
"a  c #2D4457",
"s  c #2C4557",
"d  c #2D4557",
"f  c #2D4657",
"g  c #2D4758",
"h  c #31465E",
"j  c #31475E",
"k  c #32485E",
"l  c #334960",
"z  c #324D60",
"x  c #334E61",
"c  c #3CA076",
"v  c #3DA278",
"b  c #3EA57A",
"n  c #40B27F",
"m  c #41B381",
"M  c #41B382",
"N  c #42B382",
"B  c #42B383",
"V  c #41B482",
"C  c #42B482",
"Z  c #42B483",
"A  c #42B583",
"S  c #42B684",
"D  c #43B784",
"F  c #43B884",
"G  c #43B885",
"H  c #43B985",
"J  c #44BA85",
"K  c #44BE87",
"L  c #45BD88",
"P  c #45C088",
"I  c #45C189",
"U  c #45C389",
"Y  c #47C68C",
"T  c #47C78D",
"R  c #46CA8C",
"E  c #46CB8C",
"W  c #47CC8C",
"Q  c #47CC8D",
"!  c #47CF8D",
"~  c #48C88D",
"^  c #48CC8F",
"/  c #48D28F",
"(  c #48D38F",
")  c #49CD90",
"_  c #49CE91",
"`  c #48D490",
"'  c #4BD394",
"]  c #4CD996",
"[  c #4CD897",
"{  c #4CD997",
"}  c #4EDD98",
"|  c #4EE09B",
" . c #50E29B",
".. c #50E49C",
/* pixels */
"                                                                ",
"                                                                ",
"                                                                ",
"                                                                ",
"                                                                ",
"              r                               H H H H           ",
"            r r r                           H H H H H H         ",
"          r r r r r                       H H H H H H H         ",
"          r r r r r r                   H H H H H H H H         ",
"            r r r r r r               H H H H H H H H H         ",
"              r r r r r e           H H H H H H H H H H         ",
"                r r r r 5 l       D H H H H H H H H H H         ",
"                  r r 7 h w X   [ D H H H H   H H H H H         ",
"                    7 j i O 0 _ L H F F H     H H H H H         ",
"                      ; . 9  .T V A ^ Y       H H H H H         ",
"                        q ] ~ M Z ' n         H H H H H         ",
"                        { P V C ..v o         G H H H H         ",
"                      I H D m | b + $ 8       J H H H H         ",
"                    H G H F ) c @ % x 3 4     K H H H H         ",
"                  H H H H F }   # z y p , 1   R S H H H         ",
"                H H H H H G       k 7 r d > < U / B H H         ",
"              H H H H H H           e r r f - t ( Q N H         ",
"            H H H H H H               r r r g * t ` W N         ",
"          H H H H H H                   r r r g = u ` !         ",
"          H H H H H                       r r r g & s E         ",
"            H H H                           r r r f : 6         ",
"              H                               r r r a 2         ",
"                                                                ",
"                                                                ",
"                                                                ",
"                                                                ",
"                                                                "
};
