<?xml version="1.0" standalone="no"?>
<!DOCTYPE svg PUBLIC "-//W3C//DTD SVG 20010904//EN"
 "http://www.w3.org/TR/2001/REC-SVG-20010904/DTD/svg10.dtd">
<svg version="1.0" xmlns="http://www.w3.org/2000/svg"
 width="1024.000000pt" height="1024.000000pt" viewBox="0 0 1024.000000 1024.000000"
 preserveAspectRatio="xMidYMid meet">
<metadata>
Created by potrace 1.15, written by Peter Selinger 2001-2017
</metadata>
<g transform="translate(0.000000,1024.000000) scale(0.100000,-0.100000)"
fill="#000000" stroke="none">
<path d="M2330 8607 c0 -17 -116 -139 -445 -467 -244 -245 -449 -446 -455
-448 -17 -6 -13 -110 5 -114 8 -2 563 -551 1233 -1220 1136 -1135 1222 -1218
1253 -1218 31 0 70 36 507 473 259 259 472 480 472 489 0 15 -203 228 -216
228 -8 0 -114 115 -114 122 0 5 -4 8 -10 8 -11 0 -190 180 -190 192 0 4 -5 8
-10 8 -12 0 -90 80 -90 93 0 4 -4 7 -10 7 -12 0 -120 109 -120 121 0 5 -5 9
-10 9 -12 0 -90 80 -90 93 0 4 -5 7 -10 7 -12 0 -90 80 -90 93 0 4 -5 7 -10 7
-12 0 -120 111 -120 122 0 5 -5 8 -10 8 -12 0 -90 80 -90 93 0 4 -5 7 -10 7
-12 0 -90 80 -90 93 0 4 -4 7 -9 7 -11 0 -221 210 -221 221 0 5 -4 9 -9 9 -12
0 -191 181 -191 192 0 4 -4 8 -10 8 -11 0 -220 210 -220 222 0 4 -5 8 -10 8
-12 0 -90 80 -90 93 0 4 -4 7 -9 7 -12 0 -221 210 -221 222 0 4 -5 8 -10 8
-12 0 -90 80 -90 93 0 4 -5 7 -11 7 -18 0 -79 74 -79 98 0 20 -5 22 -50 22
-46 0 -50 -2 -50 -23z"/>
<path d="M5378 4672 c-353 -353 -488 -493 -488 -510 0 -12 6 -22 14 -22 8 0
70 -54 138 -120 128 -125 811 -806 852 -850 13 -14 94 -95 180 -180 86 -85
156 -158 156 -162 0 -4 4 -8 8 -8 10 0 215 -205 220 -220 2 -5 7 -10 11 -10 3
0 195 -189 426 -421 231 -231 443 -443 471 -470 37 -36 50 -56 47 -70 -5 -19
7 -19 701 -19 l706 0 0 300 c0 248 -2 300 -14 300 -7 0 -492 484 -1077 1075
-1175 1187 -1404 1421 -1429 1462 -9 16 -41 51 -70 78 -29 28 -118 114 -198
193 -80 78 -150 142 -156 142 -6 0 -230 -219 -498 -488z"/>
</g>
</svg>
